<svg width="2383" height="1274" viewBox="0 0 2383 1274" fill="none" xmlns="http://www.w3.org/2000/svg">
<rect width="2383" height="1274" fill="black"/>
<path d="M1114.72 476.398C1097.89 476.398 1080.49 486.666 1069.94 505.205V504.064C1069.94 486.095 1061.39 476.398 1044.84 476.398C1028.87 476.398 1012.33 485.81 1001.2 503.208C1001.49 500.641 1001.77 497.789 1001.77 494.937C1001.77 488.092 1000.92 481.247 998.923 475.542C984.377 482.102 969.26 488.092 954.429 493.796C956.425 500.071 957.281 504.635 957.281 509.483C957.281 514.902 956.425 520.892 954.999 528.022L945.872 583.355C943.305 599.612 941.023 608.739 932.752 623H987.799C985.803 616.725 985.232 611.021 985.232 605.602C985.232 599.042 986.373 591.911 987.799 583.355L1000.06 511.48C1005.77 505.205 1011.76 503.208 1016.61 503.208C1023.17 503.208 1026.59 505.775 1026.59 514.047C1026.59 516.328 1026.59 518.895 1026.02 522.033L1008.91 623H1058.53C1057.39 615.87 1056.82 608.454 1056.82 601.323C1056.82 591.911 1057.68 582.499 1059.1 573.942L1068.8 516.614L1069.66 511.48C1075.36 505.205 1081.64 503.208 1086.48 503.208C1093.04 503.208 1096.47 505.775 1096.47 514.047C1096.47 516.328 1096.47 518.895 1095.9 522.033L1087.06 574.513C1084.77 587.633 1082.21 605.887 1082.21 618.151C1082.21 619.007 1082.21 620.433 1082.49 623H1128.7C1127.27 615.584 1126.7 607.883 1126.7 600.468C1126.7 591.341 1127.56 582.499 1128.98 573.942L1138.68 516.614C1139.54 512.05 1139.82 508.057 1139.82 504.064C1139.82 486.095 1131.26 476.398 1114.72 476.398ZM1200.7 626.708C1248.33 626.708 1279.42 582.214 1279.42 532.301C1279.42 495.793 1257.74 475.827 1229.51 475.827C1181.59 475.827 1151.07 520.892 1151.07 570.52C1151.07 606.743 1172.46 626.708 1200.7 626.708ZM1207.83 611.591C1199.27 611.591 1195.85 597.901 1195.85 578.506C1195.85 546.276 1203.84 490.944 1222.38 490.944C1231.22 490.944 1234.92 505.205 1234.92 524.6C1234.92 556.544 1226.65 611.591 1207.83 611.591ZM1354.23 489.803H1385.6L1388.74 479.25H1355.94L1363.35 435.612C1349.09 444.168 1332.83 451.584 1316.58 457.574C1315.72 466.415 1314.87 473.546 1314.01 479.25H1299.18L1295.47 489.803H1312.3L1296.04 586.492C1295.47 590.77 1295.19 594.478 1295.19 597.901C1295.19 619.292 1308.02 626.137 1322.57 626.137C1344.81 626.137 1365.35 609.31 1369.06 586.492C1363.92 590.485 1357.65 593.908 1351.09 593.908C1341.68 593.908 1339.68 587.348 1339.68 580.503C1339.68 576.795 1340.25 572.802 1340.82 569.664L1354.23 489.803ZM1424.2 469.553C1441.88 469.553 1455.29 456.147 1455.29 439.89C1455.29 427.626 1446.73 419.069 1432.76 419.069C1415.64 419.069 1402.24 432.189 1402.24 448.732C1402.24 460.711 1410.51 469.553 1424.2 469.553ZM1371.44 623H1426.2C1424.77 615.014 1423.92 609.595 1423.92 604.746C1423.92 599.042 1424.49 593.623 1425.91 585.922L1444.45 475.827C1427.05 483.814 1411.37 489.233 1393.4 494.081C1395.11 499.786 1395.68 505.205 1395.68 510.339C1395.68 516.614 1394.54 523.744 1393.4 530.304L1383.98 585.636C1381.42 601.038 1379.99 606.457 1371.44 623Z" fill="white"/>
<path d="M501.147 731.6H511.547L526.447 790.3L541.947 731.9H551.847L567.247 790.3L582.047 731.6H591.847L572.047 803H562.347L546.447 743.3L530.847 803H521.447L501.147 731.6ZM598.249 751.3H606.849V759.3C608.782 756.433 611.049 754.233 613.649 752.7C616.249 751.167 619.015 750.4 621.949 750.4C623.749 750.4 625.282 750.533 626.549 750.8L625.449 758.9C624.782 758.767 624.115 758.667 623.449 758.6C622.782 758.467 622.049 758.4 621.249 758.4C619.649 758.4 618.015 758.7 616.349 759.3C614.682 759.833 613.115 760.767 611.649 762.1C610.182 763.367 609.015 764.833 608.149 766.5C607.349 768.167 606.949 770.1 606.949 772.3V803H598.249V751.3ZM635.07 751.3H643.77V803H635.07V751.3ZM634.77 731.6H644.07V741.7H634.77V731.6ZM660.331 758.2H652.331V751.3H660.331V737.2H669.031V751.3H682.731V758.2H669.031V788.5C669.031 791.033 669.598 793.067 670.731 794.6C671.864 796.133 673.598 796.9 675.931 796.9C677.398 796.9 678.664 796.8 679.731 796.6C680.864 796.4 681.898 796.133 682.831 795.8L684.331 802.5C682.998 802.967 681.531 803.333 679.931 803.6C678.398 803.933 676.564 804.1 674.431 804.1C671.498 804.1 669.131 803.667 667.331 802.8C665.531 801.933 664.098 800.7 663.031 799.1C661.964 797.5 661.231 795.6 660.831 793.4C660.498 791.2 660.331 788.8 660.331 786.2V758.2ZM735.234 788.5C734.367 793.5 732.134 797.433 728.534 800.3C725.001 803.167 719.901 804.6 713.234 804.6C705.367 804.6 699.334 802.233 695.134 797.5C690.934 792.7 688.834 786.033 688.834 777.5C688.834 773.033 689.434 769.067 690.634 765.6C691.834 762.133 693.501 759.233 695.634 756.9C697.834 754.567 700.434 752.8 703.434 751.6C706.434 750.333 709.701 749.7 713.234 749.7C717.234 749.7 720.667 750.333 723.534 751.6C726.401 752.867 728.734 754.633 730.534 756.9C732.401 759.1 733.767 761.733 734.634 764.8C735.567 767.867 736.034 771.233 736.034 774.9V779.3H697.634C697.634 781.9 697.967 784.333 698.634 786.6C699.367 788.8 700.367 790.733 701.634 792.4C702.967 794 704.601 795.267 706.534 796.2C708.467 797.133 710.701 797.6 713.234 797.6C717.567 797.6 720.734 796.8 722.734 795.2C724.734 793.533 726.101 791.3 726.834 788.5H735.234ZM727.334 772.8C727.334 770.333 727.067 768.1 726.534 766.1C726.001 764.1 725.167 762.4 724.034 761C722.901 759.533 721.434 758.4 719.634 757.6C717.834 756.8 715.667 756.4 713.134 756.4C708.534 756.4 704.934 757.8 702.334 760.6C699.801 763.4 698.301 767.467 697.834 772.8H727.334ZM793.031 804.6C789.098 804.6 785.598 803.967 782.531 802.7C779.464 801.433 776.864 799.633 774.731 797.3C772.598 794.967 770.964 792.1 769.831 788.7C768.698 785.3 768.131 781.5 768.131 777.3C768.131 773.1 768.731 769.3 769.931 765.9C771.131 762.5 772.831 759.6 775.031 757.2C777.231 754.8 779.864 752.967 782.931 751.7C786.064 750.367 789.531 749.7 793.331 749.7C797.198 749.7 800.664 750.333 803.731 751.6C806.798 752.867 809.398 754.7 811.531 757.1C813.731 759.433 815.398 762.267 816.531 765.6C817.664 768.933 818.231 772.7 818.231 776.9C818.231 781.167 817.631 785 816.431 788.4C815.298 791.8 813.631 794.7 811.431 797.1C809.298 799.5 806.664 801.367 803.531 802.7C800.398 803.967 796.898 804.6 793.031 804.6ZM793.131 797.4C795.931 797.4 798.331 796.9 800.331 795.9C802.331 794.9 803.964 793.5 805.231 791.7C806.564 789.9 807.531 787.767 808.131 785.3C808.731 782.767 809.031 780 809.031 777C809.031 774.067 808.731 771.367 808.131 768.9C807.531 766.433 806.564 764.333 805.231 762.6C803.964 760.8 802.331 759.4 800.331 758.4C798.331 757.4 795.931 756.9 793.131 756.9C790.331 756.9 787.931 757.4 785.931 758.4C783.998 759.4 782.364 760.8 781.031 762.6C779.764 764.333 778.831 766.433 778.231 768.9C777.631 771.367 777.331 774.1 777.331 777.1C777.331 780.1 777.631 782.833 778.231 785.3C778.831 787.767 779.764 789.9 781.031 791.7C782.298 793.5 783.931 794.9 785.931 795.9C787.931 796.9 790.331 797.4 793.131 797.4ZM829.889 751.3H838.489V759.2C841.023 755.8 843.823 753.367 846.889 751.9C849.956 750.433 853.189 749.7 856.589 749.7C862.456 749.7 866.789 751.3 869.589 754.5C872.456 757.7 873.889 762.4 873.889 768.6V803H865.189V770.3C865.189 765.5 864.323 762.133 862.589 760.2C860.856 758.2 858.189 757.2 854.589 757.2C852.656 757.2 850.723 757.533 848.789 758.2C846.923 758.867 845.223 759.933 843.689 761.4C842.023 762.867 840.756 764.433 839.889 766.1C839.023 767.7 838.589 769.8 838.589 772.4V803H829.889V751.3ZM931.721 785.5C930.854 791.433 928.587 796.1 924.921 799.5C921.254 802.9 916.087 804.6 909.421 804.6C905.487 804.6 901.987 803.967 898.921 802.7C895.921 801.433 893.387 799.633 891.321 797.3C889.321 794.9 887.787 792.033 886.721 788.7C885.721 785.3 885.221 781.5 885.221 777.3C885.221 773.167 885.787 769.4 886.921 766C888.054 762.6 889.687 759.7 891.821 757.3C893.954 754.9 896.554 753.033 899.621 751.7C902.687 750.367 906.154 749.7 910.021 749.7C916.221 749.7 921.021 751.233 924.421 754.3C927.821 757.3 929.987 761.467 930.921 766.8L922.221 768.4C921.887 766.733 921.421 765.2 920.821 763.8C920.287 762.4 919.521 761.2 918.521 760.2C917.521 759.133 916.287 758.333 914.821 757.8C913.421 757.2 911.721 756.9 909.721 756.9C906.987 756.9 904.654 757.433 902.721 758.5C900.787 759.5 899.187 760.933 897.921 762.8C896.721 764.6 895.821 766.733 895.221 769.2C894.687 771.667 894.421 774.3 894.421 777.1C894.421 779.9 894.687 782.533 895.221 785C895.754 787.467 896.621 789.633 897.821 791.5C899.021 793.3 900.587 794.733 902.521 795.8C904.454 796.867 906.821 797.4 909.621 797.4C913.821 797.4 916.921 796.333 918.921 794.2C920.987 792.067 922.321 789.167 922.921 785.5H931.721ZM986.504 788.5C985.637 793.5 983.404 797.433 979.804 800.3C976.27 803.167 971.17 804.6 964.504 804.6C956.637 804.6 950.604 802.233 946.404 797.5C942.204 792.7 940.104 786.033 940.104 777.5C940.104 773.033 940.704 769.067 941.904 765.6C943.104 762.133 944.77 759.233 946.904 756.9C949.104 754.567 951.704 752.8 954.704 751.6C957.704 750.333 960.97 749.7 964.504 749.7C968.504 749.7 971.937 750.333 974.804 751.6C977.67 752.867 980.004 754.633 981.804 756.9C983.67 759.1 985.037 761.733 985.904 764.8C986.837 767.867 987.304 771.233 987.304 774.9V779.3H948.904C948.904 781.9 949.237 784.333 949.904 786.6C950.637 788.8 951.637 790.733 952.904 792.4C954.237 794 955.87 795.267 957.804 796.2C959.737 797.133 961.97 797.6 964.504 797.6C968.837 797.6 972.004 796.8 974.004 795.2C976.004 793.533 977.37 791.3 978.104 788.5H986.504ZM978.604 772.8C978.604 770.333 978.337 768.1 977.804 766.1C977.27 764.1 976.437 762.4 975.304 761C974.17 759.533 972.704 758.4 970.904 757.6C969.104 756.8 966.937 756.4 964.404 756.4C959.804 756.4 956.204 757.8 953.604 760.6C951.07 763.4 949.57 767.467 949.104 772.8H978.604ZM997.096 791.1H1006.3L1001.1 812.7H994.096L997.096 791.1ZM1073.12 795.9C1071.26 798.167 1068.89 800.133 1066.02 801.8C1063.16 803.4 1059.59 804.2 1055.32 804.2C1052.72 804.2 1050.32 803.867 1048.12 803.2C1045.99 802.6 1044.12 801.667 1042.52 800.4C1040.99 799.067 1039.79 797.433 1038.92 795.5C1038.06 793.567 1037.62 791.3 1037.62 788.7C1037.62 785.167 1038.36 782.3 1039.82 780.1C1041.36 777.9 1043.36 776.167 1045.82 774.9C1048.36 773.633 1051.19 772.733 1054.32 772.2C1057.46 771.667 1060.69 771.333 1064.02 771.2L1072.92 770.9V768.9C1072.92 764.5 1071.99 761.333 1070.12 759.4C1068.26 757.467 1065.22 756.5 1061.02 756.5C1056.89 756.5 1053.86 757.2 1051.92 758.6C1049.99 759.933 1048.72 761.8 1048.12 764.2L1040.22 763.3C1041.16 758.567 1043.39 755.133 1046.92 753C1050.46 750.8 1055.26 749.7 1061.32 749.7C1065.06 749.7 1068.19 750.167 1070.72 751.1C1073.32 751.967 1075.42 753.233 1077.02 754.9C1078.62 756.567 1079.76 758.633 1080.42 761.1C1081.16 763.567 1081.52 766.333 1081.52 769.4V803H1073.12V795.9ZM1072.92 777.1L1064.62 777.4C1061.09 777.533 1058.16 777.867 1055.82 778.4C1053.49 778.933 1051.62 779.667 1050.22 780.6C1048.89 781.467 1047.92 782.567 1047.32 783.9C1046.79 785.233 1046.52 786.767 1046.52 788.5C1046.52 791.1 1047.29 793.2 1048.82 794.8C1050.42 796.333 1053.02 797.1 1056.62 797.1C1061.76 797.1 1065.76 795.833 1068.62 793.3C1071.49 790.767 1072.92 787.3 1072.92 782.9V777.1ZM1094.73 751.3H1103.33V759.2C1105.87 755.8 1108.67 753.367 1111.73 751.9C1114.8 750.433 1118.03 749.7 1121.43 749.7C1127.3 749.7 1131.63 751.3 1134.43 754.5C1137.3 757.7 1138.73 762.4 1138.73 768.6V803H1130.03V770.3C1130.03 765.5 1129.17 762.133 1127.43 760.2C1125.7 758.2 1123.03 757.2 1119.43 757.2C1117.5 757.2 1115.57 757.533 1113.63 758.2C1111.77 758.867 1110.07 759.933 1108.53 761.4C1106.87 762.867 1105.6 764.433 1104.73 766.1C1103.87 767.7 1103.43 769.8 1103.43 772.4V803H1094.73V751.3ZM1151.96 751.3H1160.66V803H1151.96V751.3ZM1151.66 731.6H1160.96V741.7H1151.66V731.6ZM1174.23 751.3H1182.83V759.2C1185.16 756 1187.73 753.633 1190.53 752.1C1193.33 750.5 1196.19 749.7 1199.13 749.7C1202.99 749.7 1206.09 750.533 1208.43 752.2C1210.83 753.867 1212.59 756.267 1213.73 759.4C1216.06 756.2 1218.73 753.8 1221.73 752.2C1224.73 750.533 1227.93 749.7 1231.33 749.7C1236.39 749.7 1240.29 751.1 1243.03 753.9C1245.83 756.633 1247.23 761.067 1247.23 767.2V803H1238.53V769.2C1238.53 766.867 1238.33 764.933 1237.93 763.4C1237.53 761.8 1236.93 760.567 1236.13 759.7C1235.39 758.767 1234.46 758.133 1233.33 757.8C1232.19 757.4 1230.89 757.2 1229.43 757.2C1227.89 757.2 1226.29 757.467 1224.63 758C1222.96 758.533 1221.33 759.467 1219.73 760.8C1218.39 761.933 1217.29 763.3 1216.43 764.9C1215.56 766.5 1215.13 768.333 1215.13 770.4V803H1206.43V769.3C1206.43 764.767 1205.63 761.633 1204.03 759.9C1202.49 758.1 1200.26 757.2 1197.33 757.2C1193.93 757.2 1190.73 758.6 1187.73 761.4C1186.59 762.467 1185.49 763.833 1184.43 765.5C1183.43 767.167 1182.93 769.4 1182.93 772.2V803H1174.23V751.3ZM1292.56 795.9C1290.69 798.167 1288.32 800.133 1285.46 801.8C1282.59 803.4 1279.02 804.2 1274.76 804.2C1272.16 804.2 1269.76 803.867 1267.56 803.2C1265.42 802.6 1263.56 801.667 1261.96 800.4C1260.42 799.067 1259.22 797.433 1258.36 795.5C1257.49 793.567 1257.06 791.3 1257.06 788.7C1257.06 785.167 1257.79 782.3 1259.26 780.1C1260.79 777.9 1262.79 776.167 1265.26 774.9C1267.79 773.633 1270.62 772.733 1273.76 772.2C1276.89 771.667 1280.12 771.333 1283.46 771.2L1292.36 770.9V768.9C1292.36 764.5 1291.42 761.333 1289.56 759.4C1287.69 757.467 1284.66 756.5 1280.46 756.5C1276.32 756.5 1273.29 757.2 1271.36 758.6C1269.42 759.933 1268.16 761.8 1267.56 764.2L1259.66 763.3C1260.59 758.567 1262.82 755.133 1266.36 753C1269.89 750.8 1274.69 749.7 1280.76 749.7C1284.49 749.7 1287.62 750.167 1290.16 751.1C1292.76 751.967 1294.86 753.233 1296.46 754.9C1298.06 756.567 1299.19 758.633 1299.86 761.1C1300.59 763.567 1300.96 766.333 1300.96 769.4V803H1292.56V795.9ZM1292.36 777.1L1284.06 777.4C1280.52 777.533 1277.59 777.867 1275.26 778.4C1272.92 778.933 1271.06 779.667 1269.66 780.6C1268.32 781.467 1267.36 782.567 1266.76 783.9C1266.22 785.233 1265.96 786.767 1265.96 788.5C1265.96 791.1 1266.72 793.2 1268.26 794.8C1269.86 796.333 1272.46 797.1 1276.06 797.1C1281.19 797.1 1285.19 795.833 1288.06 793.3C1290.92 790.767 1292.36 787.3 1292.36 782.9V777.1ZM1317.17 758.2H1309.17V751.3H1317.17V737.2H1325.87V751.3H1339.57V758.2H1325.87V788.5C1325.87 791.033 1326.43 793.067 1327.57 794.6C1328.7 796.133 1330.43 796.9 1332.77 796.9C1334.23 796.9 1335.5 796.8 1336.57 796.6C1337.7 796.4 1338.73 796.133 1339.67 795.8L1341.17 802.5C1339.83 802.967 1338.37 803.333 1336.77 803.6C1335.23 803.933 1333.4 804.1 1331.27 804.1C1328.33 804.1 1325.97 803.667 1324.17 802.8C1322.37 801.933 1320.93 800.7 1319.87 799.1C1318.8 797.5 1318.07 795.6 1317.67 793.4C1317.33 791.2 1317.17 788.8 1317.17 786.2V758.2ZM1392.07 788.5C1391.2 793.5 1388.97 797.433 1385.37 800.3C1381.84 803.167 1376.74 804.6 1370.07 804.6C1362.2 804.6 1356.17 802.233 1351.97 797.5C1347.77 792.7 1345.67 786.033 1345.67 777.5C1345.67 773.033 1346.27 769.067 1347.47 765.6C1348.67 762.133 1350.34 759.233 1352.47 756.9C1354.67 754.567 1357.27 752.8 1360.27 751.6C1363.27 750.333 1366.54 749.7 1370.07 749.7C1374.07 749.7 1377.5 750.333 1380.37 751.6C1383.24 752.867 1385.57 754.633 1387.37 756.9C1389.24 759.1 1390.6 761.733 1391.47 764.8C1392.4 767.867 1392.87 771.233 1392.87 774.9V779.3H1354.47C1354.47 781.9 1354.8 784.333 1355.47 786.6C1356.2 788.8 1357.2 790.733 1358.47 792.4C1359.8 794 1361.44 795.267 1363.37 796.2C1365.3 797.133 1367.54 797.6 1370.07 797.6C1374.4 797.6 1377.57 796.8 1379.57 795.2C1381.57 793.533 1382.94 791.3 1383.67 788.5H1392.07ZM1384.17 772.8C1384.17 770.333 1383.9 768.1 1383.37 766.1C1382.84 764.1 1382 762.4 1380.87 761C1379.74 759.533 1378.27 758.4 1376.47 757.6C1374.67 756.8 1372.5 756.4 1369.97 756.4C1365.37 756.4 1361.77 757.8 1359.17 760.6C1356.64 763.4 1355.14 767.467 1354.67 772.8H1384.17ZM1458.87 795.9C1457 798.167 1454.63 800.133 1451.77 801.8C1448.9 803.4 1445.33 804.2 1441.07 804.2C1438.47 804.2 1436.07 803.867 1433.87 803.2C1431.73 802.6 1429.87 801.667 1428.27 800.4C1426.73 799.067 1425.53 797.433 1424.67 795.5C1423.8 793.567 1423.37 791.3 1423.37 788.7C1423.37 785.167 1424.1 782.3 1425.57 780.1C1427.1 777.9 1429.1 776.167 1431.57 774.9C1434.1 773.633 1436.93 772.733 1440.07 772.2C1443.2 771.667 1446.43 771.333 1449.77 771.2L1458.67 770.9V768.9C1458.67 764.5 1457.73 761.333 1455.87 759.4C1454 757.467 1450.97 756.5 1446.77 756.5C1442.63 756.5 1439.6 757.2 1437.67 758.6C1435.73 759.933 1434.47 761.8 1433.87 764.2L1425.97 763.3C1426.9 758.567 1429.13 755.133 1432.67 753C1436.2 750.8 1441 749.7 1447.07 749.7C1450.8 749.7 1453.93 750.167 1456.47 751.1C1459.07 751.967 1461.17 753.233 1462.77 754.9C1464.37 756.567 1465.5 758.633 1466.17 761.1C1466.9 763.567 1467.27 766.333 1467.27 769.4V803H1458.87V795.9ZM1458.67 777.1L1450.37 777.4C1446.83 777.533 1443.9 777.867 1441.57 778.4C1439.23 778.933 1437.37 779.667 1435.97 780.6C1434.63 781.467 1433.67 782.567 1433.07 783.9C1432.53 785.233 1432.27 786.767 1432.27 788.5C1432.27 791.1 1433.03 793.2 1434.57 794.8C1436.17 796.333 1438.77 797.1 1442.37 797.1C1447.5 797.1 1451.5 795.833 1454.37 793.3C1457.23 790.767 1458.67 787.3 1458.67 782.9V777.1ZM1480.48 751.3H1489.08V759.2C1491.61 755.8 1494.41 753.367 1497.48 751.9C1500.54 750.433 1503.78 749.7 1507.18 749.7C1513.04 749.7 1517.38 751.3 1520.18 754.5C1523.04 757.7 1524.48 762.4 1524.48 768.6V803H1515.78V770.3C1515.78 765.5 1514.91 762.133 1513.18 760.2C1511.44 758.2 1508.78 757.2 1505.18 757.2C1503.24 757.2 1501.31 757.533 1499.38 758.2C1497.51 758.867 1495.81 759.933 1494.28 761.4C1492.61 762.867 1491.34 764.433 1490.48 766.1C1489.61 767.7 1489.18 769.8 1489.18 772.4V803H1480.48V751.3ZM1536.33 814C1538.2 814.667 1540.06 815 1541.93 815C1544.06 815 1545.7 814.433 1546.83 813.3C1548.03 812.233 1549.2 810.2 1550.33 807.2L1552.43 801.7L1530.53 751.3H1540.63L1556.93 791.9L1571.83 751.3H1581.43L1558.83 807.9C1557.9 810.233 1556.96 812.267 1556.03 814C1555.1 815.8 1554.06 817.333 1552.93 818.6C1551.8 819.867 1550.43 820.8 1548.83 821.4C1547.3 822.067 1545.4 822.4 1543.13 822.4C1541.53 822.4 1540.1 822.3 1538.83 822.1C1537.56 821.9 1536.16 821.533 1534.63 821L1536.33 814ZM1586 751.3H1595.5L1605.9 792.5L1617.8 751.6H1626.6L1638.2 792.5L1648.5 751.3H1657.7L1642.6 803H1633.4L1621.8 761.8L1610.1 803H1601L1586 751.3ZM1665.24 731.6H1673.94V759C1676.47 755.733 1679.24 753.367 1682.24 751.9C1685.31 750.433 1688.54 749.7 1691.94 749.7C1697.81 749.7 1702.14 751.3 1704.94 754.5C1707.81 757.7 1709.24 762.4 1709.24 768.6V803H1700.44V770.3C1700.44 765.5 1699.57 762.133 1697.84 760.2C1696.17 758.2 1693.54 757.2 1689.94 757.2C1688.01 757.2 1686.07 757.533 1684.14 758.2C1682.27 758.867 1680.57 759.933 1679.04 761.4C1677.37 762.867 1676.11 764.433 1675.24 766.1C1674.37 767.7 1673.94 769.8 1673.94 772.4V803H1665.24V731.6ZM1766.97 788.5C1766.11 793.5 1763.87 797.433 1760.27 800.3C1756.74 803.167 1751.64 804.6 1744.97 804.6C1737.11 804.6 1731.07 802.233 1726.87 797.5C1722.67 792.7 1720.57 786.033 1720.57 777.5C1720.57 773.033 1721.17 769.067 1722.37 765.6C1723.57 762.133 1725.24 759.233 1727.37 756.9C1729.57 754.567 1732.17 752.8 1735.17 751.6C1738.17 750.333 1741.44 749.7 1744.97 749.7C1748.97 749.7 1752.41 750.333 1755.27 751.6C1758.14 752.867 1760.47 754.633 1762.27 756.9C1764.14 759.1 1765.51 761.733 1766.37 764.8C1767.31 767.867 1767.77 771.233 1767.77 774.9V779.3H1729.37C1729.37 781.9 1729.71 784.333 1730.37 786.6C1731.11 788.8 1732.11 790.733 1733.37 792.4C1734.71 794 1736.34 795.267 1738.27 796.2C1740.21 797.133 1742.44 797.6 1744.97 797.6C1749.31 797.6 1752.47 796.8 1754.47 795.2C1756.47 793.533 1757.84 791.3 1758.57 788.5H1766.97ZM1759.07 772.8C1759.07 770.333 1758.81 768.1 1758.27 766.1C1757.74 764.1 1756.91 762.4 1755.77 761C1754.64 759.533 1753.17 758.4 1751.37 757.6C1749.57 756.8 1747.41 756.4 1744.87 756.4C1740.27 756.4 1736.67 757.8 1734.07 760.6C1731.54 763.4 1730.04 767.467 1729.57 772.8H1759.07ZM1779.3 751.3H1787.9V759.3C1789.84 756.433 1792.1 754.233 1794.7 752.7C1797.3 751.167 1800.07 750.4 1803 750.4C1804.8 750.4 1806.34 750.533 1807.6 750.8L1806.5 758.9C1805.84 758.767 1805.17 758.667 1804.5 758.6C1803.84 758.467 1803.1 758.4 1802.3 758.4C1800.7 758.4 1799.07 758.7 1797.4 759.3C1795.74 759.833 1794.17 760.767 1792.7 762.1C1791.24 763.367 1790.07 764.833 1789.2 766.5C1788.4 768.167 1788 770.1 1788 772.3V803H1779.3V751.3ZM1857.6 788.5C1856.73 793.5 1854.5 797.433 1850.9 800.3C1847.36 803.167 1842.26 804.6 1835.6 804.6C1827.73 804.6 1821.7 802.233 1817.5 797.5C1813.3 792.7 1811.2 786.033 1811.2 777.5C1811.2 773.033 1811.8 769.067 1813 765.6C1814.2 762.133 1815.86 759.233 1818 756.9C1820.2 754.567 1822.8 752.8 1825.8 751.6C1828.8 750.333 1832.06 749.7 1835.6 749.7C1839.6 749.7 1843.03 750.333 1845.9 751.6C1848.76 752.867 1851.1 754.633 1852.9 756.9C1854.76 759.1 1856.13 761.733 1857 764.8C1857.93 767.867 1858.4 771.233 1858.4 774.9V779.3H1820C1820 781.9 1820.33 784.333 1821 786.6C1821.73 788.8 1822.73 790.733 1824 792.4C1825.33 794 1826.96 795.267 1828.9 796.2C1830.83 797.133 1833.06 797.6 1835.6 797.6C1839.93 797.6 1843.1 796.8 1845.1 795.2C1847.1 793.533 1848.46 791.3 1849.2 788.5H1857.6ZM1849.7 772.8C1849.7 770.333 1849.43 768.1 1848.9 766.1C1848.36 764.1 1847.53 762.4 1846.4 761C1845.26 759.533 1843.8 758.4 1842 757.6C1840.2 756.8 1838.03 756.4 1835.5 756.4C1830.9 756.4 1827.3 757.8 1824.7 760.6C1822.16 763.4 1820.66 767.467 1820.2 772.8H1849.7ZM1866.89 791.3H1876.89V803H1866.89V791.3Z" fill="white"/>
</svg>
