<svg width="1274" height="1274" viewBox="0 0 1274 1274" fill="none" xmlns="http://www.w3.org/2000/svg">
<g clip-path="url(#clip0)">
<path d="M1024.87 294.877C936.008 294.877 844.137 349.096 788.412 446.991V440.966C788.412 346.083 743.23 294.877 655.877 294.877C571.537 294.877 484.185 344.577 425.448 436.448C426.954 422.893 428.46 407.833 428.46 392.772C428.46 356.626 423.942 320.48 413.399 290.359C336.589 324.998 256.767 356.626 178.451 386.748C188.994 419.881 193.512 443.978 193.512 469.582C193.512 498.197 188.994 529.825 181.463 567.477L133.269 859.655C119.714 945.502 107.666 993.696 63.9895 1069H354.662C344.12 1035.87 341.108 1005.74 341.108 977.129C341.108 942.49 347.132 904.838 354.662 859.655L419.424 480.124C449.545 446.991 481.173 436.448 506.776 436.448C541.416 436.448 559.489 450.003 559.489 493.679C559.489 505.728 559.489 519.282 556.476 535.849L466.112 1069H728.169C722.145 1031.35 719.133 992.19 719.133 954.538C719.133 904.838 723.651 855.137 731.181 809.955L782.388 507.234L786.906 480.124C817.028 446.991 850.161 436.448 875.765 436.448C910.404 436.448 928.477 450.003 928.477 493.679C928.477 505.728 928.477 519.282 925.465 535.849L878.777 812.967C866.728 882.247 853.173 978.635 853.173 1043.4C853.173 1047.91 853.173 1055.45 854.68 1069H1098.66C1091.13 1029.84 1088.12 989.178 1088.12 950.02C1088.12 901.826 1092.64 855.137 1100.17 809.955L1151.38 507.234C1155.89 483.136 1157.4 462.051 1157.4 440.966C1157.4 346.083 1112.22 294.877 1024.87 294.877Z" fill="url(#paint0_linear)"/>
</g>
<defs>
<linearGradient id="paint0_linear" x1="1010.27" y1="241.225" x2="91.9948" y2="893.006" gradientUnits="userSpaceOnUse">
<stop stop-color="#A13BFD"/>
<stop offset="1" stop-color="#02B9F0"/>
</linearGradient>
<clipPath id="clip0">
<rect width="1274" height="1274" fill="white"/>
</clipPath>
</defs>
</svg>
