<svg width="963" height="383" viewBox="0 0 963 383" fill="none" xmlns="http://www.w3.org/2000/svg">
<path d="M335.754 106.229C304.788 106.229 272.772 125.123 253.353 159.238V157.139C253.353 124.073 237.607 106.229 207.166 106.229C177.775 106.229 147.334 123.549 126.865 155.564C127.389 150.841 127.914 145.592 127.914 140.344C127.914 127.747 126.34 115.151 122.666 104.654C95.8986 116.726 68.0817 127.747 40.7897 138.244C44.4636 149.791 46.0382 158.188 46.0382 167.111C46.0382 177.083 44.4636 188.105 41.8394 201.226L25.0443 303.046C20.3207 332.963 16.1219 349.758 0.901312 376H102.197C98.5229 364.453 97.4732 353.956 97.4732 343.984C97.4732 331.913 99.5725 318.792 102.197 303.046L124.765 170.785C135.262 159.238 146.284 155.564 155.206 155.564C167.278 155.564 173.576 160.288 173.576 175.508C173.576 179.707 173.576 184.431 172.526 190.204L141.035 376H232.359C230.259 362.879 229.21 349.233 229.21 336.112C229.21 318.792 230.784 301.472 233.409 285.726L251.253 180.232L252.828 170.785C263.325 159.238 274.871 155.564 283.794 155.564C295.865 155.564 302.163 160.288 302.163 175.508C302.163 179.707 302.163 184.431 301.114 190.204L284.844 286.776C280.645 310.919 275.921 344.509 275.921 367.078C275.921 368.652 275.921 371.276 276.446 376H361.471C358.847 362.354 357.797 348.183 357.797 334.537C357.797 317.742 359.372 301.472 361.996 285.726L379.841 180.232C381.415 171.835 381.94 164.487 381.94 157.139C381.94 124.073 366.195 106.229 335.754 106.229ZM493.966 382.823C581.616 382.823 638.824 300.947 638.824 209.099C638.824 141.918 598.936 105.179 546.976 105.179C458.802 105.179 402.643 188.105 402.643 279.428C402.643 346.084 442.007 382.823 493.966 382.823ZM507.088 355.006C491.342 355.006 485.044 329.813 485.044 294.124C485.044 234.816 499.74 132.996 533.855 132.996C550.125 132.996 556.948 159.238 556.948 194.928C556.948 253.711 541.727 355.006 507.088 355.006ZM776.482 130.896H834.215L839.988 111.477H779.631L793.277 31.1755C767.034 46.9209 737.118 60.567 707.202 71.5887C705.627 87.859 704.053 100.98 702.478 111.477H675.186L668.363 130.896H699.329L669.413 308.82C668.363 316.692 667.838 323.515 667.838 329.813C667.838 369.177 691.456 381.773 718.224 381.773C759.162 381.773 796.951 350.807 803.774 308.82C794.326 316.167 782.78 322.466 770.708 322.466C753.388 322.466 749.714 310.394 749.714 297.798C749.714 290.975 750.764 283.627 751.814 277.854L776.482 130.896ZM905.246 93.6323C937.786 93.6323 962.454 68.9645 962.454 39.0482C962.454 16.4798 946.708 0.734388 920.991 0.734388C889.5 0.734388 864.832 24.8774 864.832 55.3185C864.832 77.3621 880.053 93.6323 905.246 93.6323ZM808.149 376H908.919C906.295 361.304 904.721 351.332 904.721 342.41C904.721 331.913 905.77 321.941 908.395 307.77L942.51 105.179C910.494 119.875 881.627 129.847 848.562 138.769C851.711 149.266 852.761 159.238 852.761 168.685C852.761 180.232 850.661 193.353 848.562 205.425L831.242 307.245C826.518 335.587 823.894 345.559 808.149 376Z" fill="url(#paint0_linear)"/>
<defs>
<linearGradient id="paint0_linear" x1="678.5" y1="87.5" x2="341" y2="458.5" gradientUnits="userSpaceOnUse">
<stop stop-color="#A13BFD"/>
<stop offset="1" stop-color="#02B9F0"/>
</linearGradient>
</defs>
</svg>
