<svg width="963" height="611" viewBox="0 0 963 611" fill="none" xmlns="http://www.w3.org/2000/svg">
<path d="M335.754 212.229C304.788 212.229 272.772 231.123 253.353 265.238V263.139C253.353 230.073 237.607 212.229 207.166 212.229C177.775 212.229 147.334 229.549 126.865 261.564C127.389 256.841 127.914 251.592 127.914 246.344C127.914 233.747 126.34 221.151 122.666 210.654C95.8986 222.726 68.0817 233.747 40.7897 244.244C44.4636 255.791 46.0382 264.188 46.0382 273.111C46.0382 283.083 44.4636 294.105 41.8394 307.226L25.0443 409.046C20.3207 438.963 16.1219 455.758 0.901312 482H102.197C98.5229 470.453 97.4732 459.956 97.4732 449.984C97.4732 437.913 99.5725 424.792 102.197 409.046L124.765 276.785C135.262 265.238 146.284 261.564 155.206 261.564C167.278 261.564 173.576 266.288 173.576 281.508C173.576 285.707 173.576 290.431 172.526 296.204L141.035 482H232.359C230.259 468.879 229.21 455.233 229.21 442.112C229.21 424.792 230.784 407.472 233.409 391.726L251.253 286.232L252.828 276.785C263.325 265.238 274.871 261.564 283.794 261.564C295.865 261.564 302.163 266.288 302.163 281.508C302.163 285.707 302.163 290.431 301.114 296.204L284.844 392.776C280.645 416.919 275.921 450.509 275.921 473.078C275.921 474.652 275.921 477.276 276.446 482H361.471C358.847 468.354 357.797 454.183 357.797 440.537C357.797 423.742 359.372 407.472 361.996 391.726L379.841 286.232C381.415 277.835 381.94 270.487 381.94 263.139C381.94 230.073 366.195 212.229 335.754 212.229ZM493.966 488.823C581.616 488.823 638.824 406.947 638.824 315.099C638.824 247.918 598.936 211.179 546.976 211.179C458.802 211.179 402.643 294.105 402.643 385.428C402.643 452.084 442.007 488.823 493.966 488.823ZM507.088 461.006C491.342 461.006 485.044 435.813 485.044 400.124C485.044 340.816 499.74 238.996 533.855 238.996C550.125 238.996 556.948 265.238 556.948 300.928C556.948 359.711 541.727 461.006 507.088 461.006ZM776.482 236.896H834.215L839.988 217.477H779.631L793.277 137.176C767.034 152.921 737.118 166.567 707.202 177.589C705.627 193.859 704.053 206.98 702.478 217.477H675.186L668.363 236.896H699.329L669.413 414.82C668.363 422.692 667.838 429.515 667.838 435.813C667.838 475.177 691.456 487.773 718.224 487.773C759.162 487.773 796.951 456.807 803.774 414.82C794.326 422.167 782.78 428.466 770.708 428.466C753.388 428.466 749.714 416.394 749.714 403.798C749.714 396.975 750.764 389.627 751.814 383.854L776.482 236.896ZM905.246 199.632C937.786 199.632 962.454 174.964 962.454 145.048C962.454 122.48 946.708 106.734 920.991 106.734C889.5 106.734 864.832 130.877 864.832 161.318C864.832 183.362 880.053 199.632 905.246 199.632ZM808.149 482H908.919C906.295 467.304 904.721 457.332 904.721 448.41C904.721 437.913 905.77 427.941 908.395 413.77L942.51 211.179C910.494 225.875 881.627 235.847 848.562 244.769C851.711 255.266 852.761 265.238 852.761 274.685C852.761 286.232 850.661 299.353 848.562 311.425L831.242 413.245C826.518 441.587 823.894 451.559 808.149 482Z" fill="white"/>
</svg>
