<svg width="621" height="572" viewBox="0 0 621 572" fill="none" xmlns="http://www.w3.org/2000/svg">
<path d="M536.272 152.451L568.529 53.237L528.208 0H471.758L422.566 46.784H195.961L147.576 0H91.126L50.8047 53.237L83.0617 152.451L0 332.328L120.157 553.342L311.28 571.895L499.177 553.342L620.14 331.521L536.272 152.451ZM599.98 328.295L516.918 371.046L533.047 183.91L599.98 328.295ZM317.731 462.194L356.44 440.415V412.184H262.894V440.415L301.603 462.194V478.327H232.25V312.969L309.667 272.638L387.084 312.969V479.133H317.731V462.194ZM119.351 382.339L99.9966 156.485L194.348 66.143L301.603 142.772V259.732L281.442 268.605L265.314 164.551L174.994 208.108L133.06 301.676L216.122 392.018V485.586L119.351 382.339ZM312.893 125.833H306.441L218.541 62.9165H400.793L312.893 125.833ZM198.38 291.997L175.801 270.218L206.445 250.053L249.185 285.544L237.895 291.19L198.38 291.997ZM381.439 291.19L370.149 285.544L412.083 250.053L442.727 271.025L419.341 291.997L381.439 291.19ZM403.212 392.018L486.274 301.676L444.34 208.915L353.214 165.357L337.892 268.605L317.731 258.119V141.965H318.538L425.792 65.3363L519.337 155.678L499.983 381.532L403.212 485.586V392.018ZM86.2874 183.91L102.416 371.046L19.3542 327.488L86.2874 183.91ZM28.2249 350.88L106.448 392.018L253.217 550.116L129.834 538.016L28.2249 350.88ZM310.473 555.762L277.41 552.536L231.444 503.332V480.746L308.861 523.497L387.084 480.746V503.332L341.118 553.342L310.473 555.762ZM487.887 538.823L364.504 550.922L512.08 392.018L590.303 350.88L487.887 538.823Z" fill="url(#paint0_linear)"/>
<defs>
<linearGradient id="paint0_linear" x1="-0.241927" y1="285.988" x2="619.495" y2="285.988" gradientUnits="userSpaceOnUse">
<stop offset="0.2239" stop-color="#02B9F0"/>
<stop offset="0.9505" stop-color="#A13BFD"/>
</linearGradient>
</defs>
</svg>
