<svg width="1759" height="611" viewBox="0 0 1759 611" fill="none" xmlns="http://www.w3.org/2000/svg">
<path d="M1131.75 212.229C1100.79 212.229 1068.77 231.123 1049.35 265.238V263.139C1049.35 230.073 1033.61 212.229 1003.17 212.229C973.775 212.229 943.334 229.549 922.865 261.564C923.389 256.841 923.914 251.592 923.914 246.344C923.914 233.747 922.34 221.151 918.666 210.654C891.899 222.726 864.082 233.747 836.79 244.244C840.464 255.791 842.038 264.188 842.038 273.111C842.038 283.083 840.464 294.105 837.839 307.226L821.044 409.046C816.321 438.963 812.122 455.758 796.901 482H898.197C894.523 470.453 893.473 459.956 893.473 449.984C893.473 437.913 895.573 424.792 898.197 409.046L920.765 276.785C931.262 265.238 942.284 261.564 951.206 261.564C963.278 261.564 969.576 266.288 969.576 281.508C969.576 285.707 969.576 290.431 968.526 296.204L937.035 482H1028.36C1026.26 468.879 1025.21 455.233 1025.21 442.112C1025.21 424.792 1026.78 407.472 1029.41 391.726L1047.25 286.232L1048.83 276.785C1059.32 265.238 1070.87 261.564 1079.79 261.564C1091.87 261.564 1098.16 266.288 1098.16 281.508C1098.16 285.707 1098.16 290.431 1097.11 296.204L1080.84 392.776C1076.64 416.919 1071.92 450.509 1071.92 473.078C1071.92 474.652 1071.92 477.276 1072.45 482H1157.47C1154.85 468.354 1153.8 454.183 1153.8 440.537C1153.8 423.742 1155.37 407.472 1158 391.726L1175.84 286.232C1177.42 277.835 1177.94 270.487 1177.94 263.139C1177.94 230.073 1162.19 212.229 1131.75 212.229ZM1289.97 488.823C1377.62 488.823 1434.82 406.947 1434.82 315.099C1434.82 247.918 1394.94 211.179 1342.98 211.179C1254.8 211.179 1198.64 294.105 1198.64 385.428C1198.64 452.084 1238.01 488.823 1289.97 488.823ZM1303.09 461.006C1287.34 461.006 1281.04 435.813 1281.04 400.124C1281.04 340.816 1295.74 238.996 1329.85 238.996C1346.13 238.996 1352.95 265.238 1352.95 300.928C1352.95 359.711 1337.73 461.006 1303.09 461.006ZM1572.48 236.896H1630.21L1635.99 217.477H1575.63L1589.28 137.176C1563.03 152.921 1533.12 166.567 1503.2 177.589C1501.63 193.859 1500.05 206.98 1498.48 217.477H1471.19L1464.36 236.896H1495.33L1465.41 414.82C1464.36 422.692 1463.84 429.515 1463.84 435.813C1463.84 475.177 1487.46 487.773 1514.22 487.773C1555.16 487.773 1592.95 456.807 1599.77 414.82C1590.33 422.167 1578.78 428.466 1566.71 428.466C1549.39 428.466 1545.71 416.394 1545.71 403.798C1545.71 396.975 1546.76 389.627 1547.81 383.854L1572.48 236.896ZM1701.25 199.632C1733.79 199.632 1758.45 174.964 1758.45 145.048C1758.45 122.48 1742.71 106.734 1716.99 106.734C1685.5 106.734 1660.83 130.877 1660.83 161.318C1660.83 183.362 1676.05 199.632 1701.25 199.632ZM1604.15 482H1704.92C1702.3 467.304 1700.72 457.332 1700.72 448.41C1700.72 437.913 1701.77 427.941 1704.39 413.77L1738.51 211.179C1706.49 225.875 1677.63 235.847 1644.56 244.769C1647.71 255.266 1648.76 265.238 1648.76 274.685C1648.76 286.232 1646.66 299.353 1644.56 311.425L1627.24 413.245C1622.52 441.587 1619.89 451.559 1604.15 482Z" fill="white"/>
<path d="M536.272 171.451L568.529 72.237L528.208 19H471.758L422.566 65.784H195.961L147.576 19H91.126L50.8047 72.237L83.0617 171.451L0 351.328L120.157 572.342L311.28 590.895L499.177 572.342L620.14 350.521L536.272 171.451ZM599.98 347.295L516.918 390.046L533.047 202.91L599.98 347.295ZM317.731 481.194L356.44 459.415V431.184H262.894V459.415L301.603 481.194V497.327H232.25V331.969L309.667 291.638L387.084 331.969V498.133H317.731V481.194ZM119.351 401.339L99.9966 175.485L194.348 85.143L301.603 161.772V278.732L281.442 287.605L265.314 183.551L174.994 227.108L133.06 320.676L216.122 411.018V504.586L119.351 401.339ZM312.893 144.833H306.441L218.541 81.9165H400.793L312.893 144.833ZM198.38 310.997L175.801 289.218L206.445 269.053L249.185 304.544L237.895 310.19L198.38 310.997ZM381.439 310.19L370.149 304.544L412.083 269.053L442.727 290.025L419.341 310.997L381.439 310.19ZM403.212 411.018L486.274 320.676L444.34 227.915L353.214 184.357L337.892 287.605L317.731 277.119V160.965H318.538L425.792 84.3363L519.337 174.678L499.983 400.532L403.212 504.586V411.018ZM86.2874 202.91L102.416 390.046L19.3542 346.488L86.2874 202.91ZM28.2249 369.88L106.448 411.018L253.217 569.116L129.834 557.016L28.2249 369.88ZM310.473 574.762L277.41 571.536L231.444 522.332V499.746L308.861 542.497L387.084 499.746V522.332L341.118 572.342L310.473 574.762ZM487.887 557.823L364.504 569.922L512.08 411.018L590.303 369.88L487.887 557.823Z" fill="white"/>
</svg>
